<svg xmlns="http://www.w3.org/2000/svg" width="477.343648" height="265.772017" version="1.0" viewBox="0 0 358.007736 199.329013">
    <path class="color-main color-red" d="M152.639492.570848c-15.4 1.6-33.7 7.9-43.7 15-1.4 1-3.1 1.9-3.7 1.9-.6 0-5.7 4.6-11.4 10.2-13.1 13-19.2 22-24.8 36.3l-2.7 7-32.6.1c-18 .1-32.8.3-33 .5-.8.8-1 55.5-.3 56.6.6 1 8.5 1.3 33.6 1.3h32.7l2.4 5.7c15 37 49.8 61.8 89.8 64 31 1.7 63.4-12.9 83.3-37.7 5.6-7 15.9-26 15.9-29.5 0-1.3 6-1.5 49.8-1.7l49.7-.3.3-27.4c.2-21.5 0-27.6-1-28.3-.7-.4-22.3-.8-47.9-.8-35.7 0-46.9-.3-48.1-1.3-.9-.6-2.1-3-2.8-5.2-3.3-10.7-12.9-26.2-22.4-36.4-20.2-21.4-53.1-33.3-83.1-30zm24.5 4.4c11.7 2 14.3 2.8 23.6 6.7 38.7 16.6 62.1 55.5 58.3 96.9-.8 8.9-2.2 15.5-3.9 19.4-.4 1.1-1.5 4.2-2.4 6.9-4.8 15.1-19.9 33.8-35.2 43.7-19.1 12.5-43.5 18.5-64.4 16-23.4-2.8-40.6-10.6-56.9-25.7-6.6-6.1-15.8-17.9-19.3-24.9-.9-1.7-2.3-4.4-3.1-6-.9-1.7-1.9-4.2-2.2-5.8l-.7-2.7h23.2l2 3.9c5.1 10 15.3 21.5 24.9 27.8 6.8 4.5 21.1 10.8 26.6 11.7 15.3 2.4 27.6 1.6 39.8-2.6 30.9-10.5 51-38.3 51-70.8.1-16.1-4.4-29.4-14.4-43-13.2-18.1-30.1-27.8-53.7-31-15.8-2.1-34 2.7-51 13.4-8.6 5.4-20.6 19.7-24.8 29.4l-1.9 4.2-10.9-.6c-6.1-.3-11.2-.7-11.4-.9-.7-.6 5.7-14.7 9.9-21.8 4.4-7.6 18.2-22.1 26.1-27.4 21.8-15 46.9-20.9 70.8-16.8zm-3.6 24.6c24 4.3 41.9 16.9 52.7 37.2 2.7 5.1 2.8 5.8 1.4 6.4-1 .3-8.8.3-17.4-.1-8.6-.3-37.3-.6-63.7-.6-26.5-.1-48.4-.3-48.7-.7-1.4-1.3 5.8-13 11.9-19.5 17.2-18.1 41.5-26.7 63.8-22.7zm11.2 46.6l46.2.6 1 3.6c3.7 12.2 3.4 28.4-.7 40.4l-1.8 5.2-112.8-.2c-62 0-113-.5-113.4-1-.4-.4-.5-12-.3-25.7l.4-24.9 67.6.7c37.3.3 88.5.9 113.8 1.3zm148.8 1.4c10.4 0 19.4.3 20 .5 1 .4 1.3 11.9.8 39.1l-.2 9.3h-93.8l.8-3.8c.5-2 1.2-5.1 1.6-6.7.6-2.8.7-2.9 1.5-.8.6 1.6 1.5 2.1 3.3 1.9 3.5-.4 3.5-.4 3.8-6.6l.4-5.5h10.9l.5 6 .5 6 4.2.3c4.1.3 4.3.2 3.4-2-.5-1.3-.7-3.7-.6-5.3.2-1.6-.2-4.3-1-6.1-1.1-2.8-1.1-3.5 0-4.4 2.1-1.8 2.9-7.4 1.4-10.1-2.6-5-3.7-5.4-14.9-5.7l-10.7-.4-1 3.4-1.1 3.3-.1-4.2c-.1-2.3-.6-5.4-1.1-6.9l-1.1-2.7 26.8.7c14.7.3 35.3.6 45.7.7zm-50.6 13.1c1.8 1.8 1.5 5.6-.5 6.6-1.5.7-4.6.8-9.5.3-.5-.1-.8-1.9-.8-4.1v-4h4.8c2.6 0 5.3.5 6 1.2zm-56.1 40.2c1.2 1.2-9 14.7-15.7 20.9-28 25.8-72.2 24.5-99.6-3-5.4-5.5-13.4-16.6-13.4-18.8 0-.9 127.9 0 128.7.9z"/>
    <path class="color-main color-red" d="M159.539492 8.570848c-.3.5 0 .9.5.9.6 0 1.1 2 1.1 4.5s-.4 4.5-1 4.5c-.5 0-1 .4-1 1 0 .5 1.4 1 3 1 2.8 0 2.9-.2 1.8-2-1.1-1.7-1-2.2.2-3 1.7-1.1 2.7-.3 3.2 2.5.2 1.2 1.3 2.1 2.6 2.3 1.8.3 2.2-.1 2.2-2.5-.1-2.7-.1-2.7-1.6-.8-1.4 1.9-1.5 1.7-.9-2.6.5-3.2.3-4.9-.5-5.4-1.8-1.1-9-1.4-9.6-.4zm8.4 3.2c.3 1.2-.3 1.7-2.2 1.7-2.5 0-3.5-1.8-1.9-3.4 1.2-1.2 3.8-.2 4.1 1.7zm-28.5-1c-3.8 1.4-5.2 2.7-3 2.7 2.1 0 4.1 6.8 2.5 8.7-1.3 1.6-.5 1.6 4.4.3 6.1-1.7 7.5-6.4 3.3-10.5-2.7-2.8-2.8-2.8-7.2-1.2zm6.1 2.3c2.7 2.6 1.9 6.4-1.6 7.7-1.4.5-2-.2-2.8-3.4-1.6-5.7.8-8 4.4-4.3zm30.4-2.3c1.7 2 .7 7.6-1.6 9.3-1.2.9-.5 1.3 3.7 2.1 4.7.9 5.3.8 6.2-.9 1.4-2.6.3-3.7-1.4-1.4-1.6 2.1-4.7 1.1-4.7-1.5 0-1 .5-1.9 1-1.9.6 0 1 .7 1 1.5 0 3 1.8 1.4 2.5-2.3.6-3.1.9-3.4 1.5-1.7.7 1.9.8 1.9 1.5.2 1.1-2.6-.3-3.6-6-4.4-4.5-.6-4.9-.5-3.7 1zm5.2 2.1c0 .8-.4 1.8-1 2.1-.5.3-1-.3-1-1.4 0-1.2.5-2.1 1-2.1.6 0 1 .6 1 1.4zm9.4 1.3c.8 2-2.2 8.1-4.2 8.5-1.2.3-.6.9 1.8 2 6.1 2.7 6.9 2.8 8 .8 1.4-2.6 1.2-3.8-.4-1.8-1.3 1.7-5.6 1.5-5.6-.3 0-2.1 3-7.9 4-7.9 1.8 0 .2-1.7-2.1-2.3-1.5-.4-1.9-.2-1.5 1zm-66.4 2.8c-1.6.9-1.9 1.4-.9 1.5 1.9 0 5.1 6.4 4.3 8.5-.8 2 1.3 1.8 5.1-.4 2.9-1.7 4.8-6.1 2.6-6.1-.6 0-1.1.9-1.1 1.9 0 1.6-1.8 3.1-3.6 3.1-1 0-3.5-6.5-3.1-8.1.6-2.2 0-2.3-3.3-.4zm79.2 1.7c.7 1.9-2.9 8.6-4.8 9-1.3.2-1 .7 1.2 1.7 1.6.8 4.4 2.6 6.3 4 2.6 1.8 3.3 2 2.8.8-.8-2.1 1-3.2 2.8-1.7 2 1.6 2 4.4 0 3.6-2.3-.9-1.7.7 1.1 2.8 2.5 1.8 2.6 1.8 2.3 0-.2-1.1.3-4.1 1-6.7.8-2.6 1.1-5.1.7-5.5-.4-.3-2.8.5-5.4 2-3.5 1.9-5.3 2.4-6.9 1.7-1.3-.5-2.3-1.3-2.3-1.9 0-2.2 3-6.9 4.7-7.2 1.4-.2 1.1-.7-1.1-2.2-1.9-1.2-2.7-1.4-2.4-.4zm-88.4 1.9c-2.8 1.6-2.3 7.1.8 10 2.3 2.2 2.7 2.3 5.2.8 3.5-1.9 3.9-5.7 1.2-9.2-2.3-2.8-4.3-3.3-7.2-1.6zm6.2 3.3c2.9 5.6-1.6 8.4-5.3 3.4-2-2.6-2-2.8-.3-4.7 2.1-2.3 3.8-1.9 5.6 1.3zm-22.8 10c-3 3.1-4.3 5.4-2.3 4.2 1.4-.9 7.1 5.2 6.5 6.9-.9 2.2 0 1.9 4.2-1.9 2.5-2.2 3.5-3.8 3.1-5-.4-.9-1.1-1.6-1.6-1.6-.6 0-.8.6-.5 1.4.3.7-.2 2.1-1.1 3-1.3 1.3-2 1.4-3.1.5-2.1-1.7-1.7-3.1.6-2.4 2.6.8 1.8-1.5-1.2-3.4-1.8-1.1-2-1.1-1.5.3.3.8.2 1.8-.4 2.1-.5.4-1.2-.1-1.5-.9-.7-1.8 2.2-5.1 3.1-3.6.3.5 1 1 1.6 1 1.6 0 1-1.9-.9-2.9-1.4-.7-2.5-.3-5 2.3zm126.8.9c0 1.9-5.6 7-6.9 6.3-2.5-1.6-.8 1.4 2.4 4.3 1.9 1.7 3.5 3.4 3.5 3.8 0 .4 1.5 2.7 3.3 5 1.7 2.3 4.4 6.4 6 9.2 2.6 4.8 2.9 5.1 5 3.9l2.2-1.3-2.3-.3c-1.2-.2-2.7-1.2-3.2-2.2-.8-1.5-.6-2.1 1.1-3.1 2-1 2.1-.9 1.6 1-.6 2.5-.4 2.5 3.3.6 1.7-.9 3-1.1 3-.5 0 .5-.4 1-1 1-.5 0-1 .4-1 1 0 1.2 1 1.3 3 .1 1.2-.8 1-1.7-1-6.1-2-4.2-2.5-4.8-3.1-3.2-.8 2.1-5.1 5.2-7.4 5.2-1.8 0-1.8-.5-.5-3 .8-1.5.6-1.7-.8-1.3-1 .2-2.5-.3-3.2-1.2-1.3-1.5-1.1-2 1.5-4.1 1.7-1.3 4-2.4 5.3-2.4 2.3 0 2.3 0 .5-2.5-2-2.7-3.6-3.3-2.7-1.1.5 1.4-6.2 6.3-7.2 5.3-.7-.6 1.7-4.8 3.5-6.3 1.9-1.5.7-5.5-2.4-7.7-1.9-1.4-2.5-1.5-2.5-.4zm3.8 3.9c1.6 1.6 1.5 2.8-.2 2.8s-3.8-2.4-2.9-3.3c.9-1 1.7-.9 3.1.5zm-2.8 5.4c0 1.7-1.5 2.5-3.4 1.8s-2.1-4-.3-4.7c1.5-.5 3.7 1.1 3.7 2.9zm16.1 15.7c-1.3 1.3-2.6.3-1.6-1.2.3-.6 1.1-.8 1.7-.5.6.4.6 1-.1 1.7zm-152.4-16.5c-2.1 2.3-2.2 3.3-.2 2.6 2.2-.9 3.1 2.5 1.1 4.4-1.5 1.6-1.7 1.5-2.2-.6-.8-2.8-1.5-2.7-3.8.5-1.8 2.4-1.8 2.6-.2 2 2.9-1.1 9.4 3.2 8 5.4-.4.7-.2 1 .6.7.6-.2 2.8-2.5 4.7-5.1 3.1-4.1 3.3-4.7 1.6-4.7-2.1 0-6.8-3.7-7.5-5.8-.2-1-.8-.9-2.1.6zm7.3 7.7c0 .7-.7 1.8-1.5 2.5-2.6 2.2-4.9-1.2-2.4-3.7 1.4-1.4 3.9-.6 3.9 1.2zm-17.8 8l-2.2 4.5 2.1 1.1c1.1.6 2.4.7 2.7.3.4-.4.1-.9-.5-1.1-1.8-.6-1.6-2.3.2-2.3 2.5 0 6.5 2.3 6.5 3.7 0 1.8 1 1.6 2.6-.5 1.8-2.3 1.7-3.5-.1-2.8-2 .7-8.5-2.4-8.5-4.2 0-.9.7-1.1 2-.7 2.4.7 2.7-1 .4-1.9-2.6-1-2.9-.8-5.2 3.9zm170.9 35.2c-.1.7-.8 1.3-1.6 1.3s-1.5.6-1.5 1.4c0 .8-.6 1.7-1.2 1.9-1 .4-1 .6 0 .6.6.1 1.2.8 1.2 1.6 0 1 1.1 1.5 3.5 1.5 2.6 0 3.3-.3 2.9-1.5-.4-.9 0-1.5 1-1.5.9 0 1.6-.3 1.6-.6 0-.9-2.8-3.4-3.8-3.4-.6 0-1.3-.6-1.5-1.3-.4-1-.6-1-.6 0zm-33.9 62.9c-2 2-3 3.4-2.1 3.1 2-.6 6.9 4.1 6.9 6.6s1.2 2.1 5-1.8c3.3-3.4 3.3-3.6 1.6-5.3-1.7-1.6-1.8-1.6-1.2.4.4 1.3.1 2.6-.9 3.4-1.8 1.5-4.5.6-4.5-1.5 0-1.2.6-1.5 2.3-.9 2.2.6 2.2.6-.3-2.1l-2.5-2.7-.6 2.4c-.6 2.1-.7 2.1-1.4.4-1-2.2 1.2-3.8 4-2.9 1.7.5 1.8.4.6-1.1-1.9-2.3-2.6-2.1-6.9 2zm-8.6 6.9c-1.5 1.4-3.3 2.5-4 2.5-.8 0-1.9.7-2.6 1.5-1 1.2-1 1.5.3 1.5 1.2 0 3.1 2.3 6.2 7.7 0 .1 1.1 0 2.3-.4 2.6-.6 2.9-2.3.4-2.3-.9 0-2.3-.9-3-2-1.6-2.6-.2-2.5 4.2.1 3.5 2 3.6 2 3.6.2 0-1.1-1.1-3.4-2.5-5.3-1.9-2.5-2.2-3.7-1.4-4.7 2-2.3-.7-1.4-3.5 1.2zm3.2 4.4c1.5 2.2 1.5 2.2-1.1 1-1.5-.7-2.7-1.9-2.7-2.6 0-2 2-1.2 3.8 1.6zm-100.1-5.2c-1.2 1.2-.7 3.4 1.3 6.1 2.4 3 1.3 5-1.9 3.2-1.6-.8-2-1.7-1.6-3.1.8-2.5-.7-2.5-2.3.1-1.1 1.8-.9 2.2 2 4 4.1 2.5 4.1 2.5 6.3 0 1-1.1 1.4-2 1-2-.5 0 .2-1.1 1.5-2.5l2.3-2.5-2.3-2c-2.3-2-5.1-2.6-6.3-1.3zm5.3 3.1c0 2.6-1.1 3.4-2.7 2.1-2-1.7-1.6-3.9.7-3.9 1.3 0 2 .7 2 1.8zm5.3 1.6c.8 2.1-2.2 8.6-4 8.6-2.2 0-1.5 1.6 1.3 2.9 2.3 1 2.5.9 1.9-.7-.8-2.7 1.5-4.4 3.8-2.7 2.1 1.5 1.2 4.9-1.2 4.1-.9-.4-.6.2.8 1.4 2.7 2.3 4.3 2.6 3.5.6-.8-2.1 2.5-8.6 4.4-8.6 2 0 .5-1.5-2.5-2.4-1.8-.6-2-.4-1.6 1.4.4 1.5.1 2-1.5 2-2.9 0-3.9-2.1-1.7-3.6 1-.8 1.7-1.5 1.4-1.6-4.4-2.7-5.2-3-4.6-1.4zm72.7 4.1c-1.7 1-2 1.4-.9 1.5 2 0 5.1 6.2 4.3 8.4-.7 2 .3 2 3.6.1 2-1.1 2.1-1.4.7-1.5-2 0-5.2-6.4-4.3-8.6.7-1.8-.2-1.7-3.4.1zm-60.3 4.3c-3.4 3.7-1.2 10.2 3.3 10.2 2.4 0 6-3.8 6-6.3 0-5.3-5.8-7.8-9.3-3.9zm5.7-.2c3.5 1.3 1 8.4-2.9 8.4-2.1 0-2.5-.5-2.5-2.9 0-1.6.7-3.7 1.6-4.5 1.8-1.8 1.7-1.8 3.8-1zm41.3.1c-1.6.4-1.6.6-.4 1.6 2.3 1.9 4 7.9 2.5 8.8-2.4 1.5-.3 1.6 4.5.2 3.9-1.2 4.7-1.8 4.7-3.9 0-3.1-.8-3.1-2 .1-1.5 3.9-4.4 3.2-5.6-1.5-.8-2.7-.8-4.2 0-5 1.1-1.1-.3-1.2-3.7-.3zm-34.8 1.7c1.3 1.6.5 8.6-1 8.6-.5 0-.9.4-.9.9 0 1.3 4.3 2.2 5.4 1.1.7-.7.5-1-.3-1-1.9 0-.9-3.3 1.2-3.6 1.3-.2 1.7.5 1.7 2.6 0 1.6.5 3.2 1 3.5 1.5.9 4-1.4 3.9-3.4 0-1-.2-1.1-.6-.4-.2.7-.9 1.3-1.4 1.3-1.2 0-1.2-3.7.1-4.5.6-.3 1-1.4 1-2.5 0-1.9-4.5-4-8.8-4-2 0-2.2.3-1.3 1.4zm7.9 2.9c.3 1.2-.3 1.7-2.2 1.7-2.5 0-3.5-1.8-1.9-3.4 1.2-1.2 3.8-.2 4.1 1.7zm4.2.4c.1 2.5.2 2.6 1.4 1 1.8-2.4 2.3-2.2 3 1.5.4 2.2.1 3.7-1 5-1.6 1.7-1.6 1.8 1.5 1.8 2.8 0 3.1-.2 2.1-1.9-1.6-3-1.3-8.1.5-8.1.8 0 1.5.7 1.5 1.6 0 .8.5 1.2 1 .9.6-.3 1-1.5 1-2.6 0-1.6-.7-1.9-5.5-1.9-5.3 0-5.5.1-5.5 2.7zm-143.9-96c-5.4 2.7-8.5 8.3-8.5 15.7 0 11.2 6.4 18.1 16.1 17.4 3.1-.3 6.1-1.2 7.2-2.2 1.6-1.5 1.9-1.5 2.4-.1.4.8 1.8 1.5 3.2 1.5 2.5 0 2.5 0 2.5-9v-9.1l-7.2.3c-7.1.3-7.3.4-7.6 3-.3 2.6-.1 2.8 3.2 2.8 4.3 0 5.1 1.1 2.8 4-1.3 1.6-3 2.3-6.1 2.4-3.6.1-4.7-.4-6.8-2.8-2.2-2.6-2.5-3.7-2.1-8.9.4-5 .9-6.4 3.2-8.4 3.8-3.3 8.1-3 11.6.7 2.8 3 7.2 4 8.5 2 1.1-1.7-2.8-7.2-6.5-9.1-4.3-2.3-11.4-2.4-15.9-.2zm194.4-.5c-.2.7-.6 3.5-.7 6.3l-.3 5-6.2.3-6.3.3v-12.1h-8v33.1l3.8-.3 3.7-.3.5-6.8c.3-3.7.8-6.7 1.3-6.7h11.8l-.3 6.7-.3 6.8 3.8.3 3.7.3v-16.4c0-14.1-.2-16.6-1.6-17.1-2.5-1-4.4-.7-4.9.6zm-139.5 16.3v16.5h6.9l.3-7.1.3-7.1 6-.1 6-.1.3 7.2.3 7.2h6.9v-33h-6.9l-.3 5.7-.3 5.8h-12l-.3-5.8-.3-5.7h-6.9v16.5zm64.6-14.6c-1.9 2.1-2.4 8.4-.8 10.4 1 1.1.5 2.2-2.3 5.1-3.6 3.9-4.2 6.6-2.5 11 1.8 4.9 10.2 7.1 15.9 4.2 1.7-.9 3.2-1.1 4.2-.5 1.6 1 8.9 1.2 8.9.2 0-.4-1.2-1.9-2.6-3.4-2.4-2.5-2.5-2.8-1.1-5.5.8-1.6 1.7-4 1.8-5.4.4-2.2 0-2.5-2.6-2.5-2.3 0-3.1.5-3.3 2.2-.4 2.9-1.7 2.9-3.6.1-1.4-1.9-1.3-2.4.9-5 3-3.6 3.2-6.7.4-10.2-1.7-2.2-2.9-2.6-6.8-2.6-3.4 0-5.3.5-6.5 1.9zm9.2 5.4c.4 2-2.5 3.4-4 1.9s-.1-4.4 1.9-4c1 .2 1.9 1.1 2.1 2.1zm.2 18.7c0 1.5-5.1 2.4-6.9 1.3-2.3-1.5-2.5-4.2-.5-6.5 1.9-2 1.9-2 4.6 1.1 1.6 1.7 2.8 3.6 2.8 4.1zm-100.3.7c-.4.3-.7 1.9-.7 3.5 0 2.5.3 2.8 3.5 2.8 3.3 0 3.5-.2 3.5-3.5 0-3.2-.3-3.5-2.8-3.5-1.6 0-3.2.3-3.5.7zm59.3 2.9c0 3.4.1 3.5 3.3 3.2 2.8-.3 3.2-.7 3.5-3.6.3-3.1.2-3.2-3.2-3.2-3.5 0-3.6.1-3.6 3.6zm118-.1c0 3.6 0 3.6 3.8 3.3 3.4-.3 3.7-.6 3.7-3.3 0-2.7-.3-3-3.7-3.3-3.8-.3-3.8-.3-3.8 3.3zm91.8-29.9c-.5.4-.8 8.1-.8 17.1v16.3h3.4c3.3 0 3.5-.2 4.2-4.5.3-2.5.4-5.2 0-6-.5-1.4.3-1.6 5.2-1.3l5.7.3.5 5.5.5 5.5 3.9.3 3.9.3-.6-6.6c-.4-3.7-1.2-7.3-1.8-8.1-.8-1-.7-1.7.5-2.9 3.7-3.8 3-10.4-1.7-13.8-2-1.6-4.7-2.1-12.4-2.5-5.4-.2-10.1-.1-10.5.4zm17.3 6.4c2.4 1.3 2.6 6.5.3 7.4-.9.3-3.5.6-5.9.6-4.3 0-4.3 0-4.7-4-.4-4.2-.8-3.9 7-4.8.7-.1 2.2.3 3.3.8zm-30.3 19.8c-1.3.2-1.8 1.3-1.8 3.8 0 3.2.2 3.4 3.4 3.4 2.8 0 3.5-.4 4-2.5.4-1.4.4-3 .1-3.4-.6-1.1-3.6-1.8-5.7-1.3zm45.9.9c-.4.3-.7 1.9-.7 3.5 0 2.5.3 2.8 3.5 2.8 3.3 0 3.5-.2 3.5-3.5 0-3.2-.3-3.5-2.8-3.5-1.6 0-3.2.3-3.5.7z"/>
</svg>
